<svg width="18" height="18" viewBox="0 0 18 18" fill="none" xmlns="http://www.w3.org/2000/svg">
<path d="M16.3583 5.67485L10.9 1.30819C9.83332 0.458186 8.16666 0.449853 7.10832 1.29985L1.64999 5.67485C0.866656 6.29985 0.391656 7.54985 0.558323 8.53319L1.60832 14.8165C1.84999 16.2249 3.15832 17.3332 4.58332 17.3332H13.4167C14.825 17.3332 16.1583 16.1999 16.4 14.8082L17.45 8.52485C17.6 7.54985 17.125 6.29985 16.3583 5.67485ZM9.62499 13.9999C9.62499 14.3415 9.34166 14.6249 8.99999 14.6249C8.65832 14.6249 8.37499 14.3415 8.37499 13.9999V11.4999C8.37499 11.1582 8.65832 10.8749 8.99999 10.8749C9.34166 10.8749 9.62499 11.1582 9.62499 11.4999V13.9999Z" fill="#0F0F0F"/>
</svg>
